<svg xmlns="http://www.w3.org/2000/svg" viewBox="0 0 64 64"><g transform="translate(0,-988.36218)"><path style="" d="M 37.375,0.21875 C 33.911854,0.2455621 30.348171,1.2358298 27.34375,3.8125 22.788712,7.7190198 15.581584,14.446144 9.96875,21.03125 5.3468522,26.453767 2.6553302,34.344223 2.125,43.625 c -0.5182418,9.069231 4.4479998,13.180995 9,16.9375 4.552,3.756505 9.957804,3.429379 14.15625,1.75 C 29.479697,60.633122 37.521224,55.128745 42.25,49.78125 46.978777,44.433755 48.696545,41.814563 50.90625,38.5 c 2.209709,-3.314563 2.787863,-3.686702 4.0625,-3.875 1.944544,-0.287262 3.094789,-1.191041 4.0625,-3.25 1.038564,-2.209709 -0.21875,-4.59375 -0.21875,-4.59375 0,0 -1.040673,2.997398 -1.96875,4.5 -0.928078,1.502604 -2.53309,1.835247 -3.59375,1.4375 -1.060661,-0.397748 -3.444051,-2.021716 -4.96875,-3.28125 -1.431429,-1.182487 -2.793274,-2.528648 -2.21875,-4.03125 0.574524,-1.502602 1.208947,-3.410311 1.5625,-4.25 -0.751301,0.04419 -1.384422,0.579505 -2.3125,1.375 -0.928077,0.795495 -1.820083,2.437118 -1.6875,3.71875 0.132582,1.281631 -0.324144,2.181757 -1.03125,3.375 -0.707107,1.193242 -3.613134,5.383279 -7.28125,10.15625 -3.668117,4.77297 -8.092607,8.046573 -11.9375,10.875 -3.844893,2.828428 -8.56526,4.166973 -10.15625,4.34375 -0.132581,1.016466 -0.259803,2.006821 0.09375,4.4375 -1.325824,-2.342291 -0.922716,-5.162308 0.09375,-10.15625 1.016466,-4.993942 3.6875,-9.9375 9,-15.34375 5.3125,-5.40625 9.09375,-9.125 13.03125,-13.125 3.9375,-4 7.205262,-7.849676 10.46875,-9.65625 3.5,-1.9375001 7.25,-1.5000001 8.625,-0.28125 -3.25,-1.0937501 -4.84375,-0.25 -4.84375,-0.25 0,0 0.28125,2.15625 -0.25,5.1875 -0.53125,3.03125 -2.1875,7.53125 -2.875,9.40625 -0.6875,1.875 1.09591,3.115876 2.53125,4.15625 1.564721,1.134153 5.59375,5.25 7.65625,1.1875 2.0625,-4.0625 3.665134,-12.345748 2.78125,-16.5 C 58.647367,9.9082472 52.560503,5.3110412 48.40625,2.96875 46.069483,1.6512112 41.827617,0.18427725 37.375,0.21875 z M 34.6875,1.875 c 0.237207,0.0052 0.483836,0.026004 0.71875,0.0625 0.939656,0.1459858 1.831197,0.5740075 2.5,1.25 0.628167,0.634919 1.044432,1.4933832 1.1875,2.375 0.143068,0.8816161 0.03628,1.7789722 -0.25,2.625 C 38.2712,9.8795555 37.001704,11.225597 35.75,12.5 L 18.6875,29.875 c -0.666161,0.678242 -1.331509,1.351402 -2.125,1.875 -0.793491,0.523598 -1.710392,0.904428 -2.65625,1 -0.945859,0.09557 -1.906506,-0.09273 -2.75,-0.53125 C 10.312756,31.78023 9.595755,31.107188 9.125,30.28125 8.364373,28.94673 8.250584,27.285118 8.6875,25.8125 c 0.436916,-1.472617 1.383354,-2.733162 2.375,-3.90625 5.088032,-6.018994 10.68794,-11.613479 16.71875,-16.6875 1.455292,-1.2244097 2.999247,-2.4262693 4.8125,-3 C 33.27372,2.0036007 33.975878,1.8594101 34.6875,1.875 z m 11.15625,31.03125 c 0.695622,0 1.25,0.554379 1.25,1.25 0,0.695622 -0.554378,1.28125 -1.25,1.28125 -0.695621,0 -1.28125,-0.585628 -1.28125,-1.28125 0,-0.695621 0.585629,-1.25 1.28125,-1.25 z m -3.46875,5.125 c 0.695622,0 1.28125,0.554379 1.28125,1.25 0,0.695622 -0.585628,1.28125 -1.28125,1.28125 -0.695621,0 -1.25,-0.585628 -1.25,-1.28125 0,-0.695621 0.554379,-1.25 1.25,-1.25 z m -3.84375,4.8125 c 0.695622,0 1.28125,0.585629 1.28125,1.28125 0,0.695622 -0.585628,1.25 -1.28125,1.25 -0.695621,0 -1.25,-0.554378 -1.25,-1.25 0,-0.695621 0.554379,-1.28125 1.25,-1.28125 z m -4.5,4.28125 c 0.08199,-0.01678 0.163047,0 0.25,0 0.695622,0 1.25,0.554379 1.25,1.25 0,0.695622 -0.554378,1.25 -1.25,1.25 -0.695621,0 -1.25,-0.554378 -1.25,-1.25 0,-0.608668 0.426052,-1.132553 1,-1.25 z M 29.75,51.0625 c 0.695622,0 1.25,0.509444 1.25,1.15625 0,0.646806 -0.554378,1.15625 -1.25,1.15625 -0.695621,0 -1.25,-0.509444 -1.25,-1.15625 0,-0.646806 0.554379,-1.15625 1.25,-1.15625 z m -4.5625,3.0625 c 0.695622,0 1.25,0.425677 1.25,0.96875 0,0.543073 -0.554378,1 -1.25,1 -0.695621,0 -1.28125,-0.456927 -1.28125,-1 0,-0.543073 0.585629,-0.96875 1.28125,-0.96875 z" transform="translate(0,988.36218)"/></g></svg>